<svg id="Layer_1" data-name="Layer 1" xmlns="http://www.w3.org/2000/svg" viewBox="0 0 944 944"><defs><style>.cls-1{fill:#fff;}</style></defs><path class="cls-1" d="M872,1012a472.12,472.12,0,0,1-182.66-906A469,469,0,0,1,872,68l3,0,3.06,0A237,237,0,0,1,875,542c-128.48,0-233,104.52-233,233,0,126.86,103.17,231.37,230,233Z" transform="translate(-403 -68)"/><path class="cls-1" d="M1110,305c0,129.79-105.21,235-235,235S640,645.21,640,775c0,128.78,103.57,233.35,232,235-258.17-1.63-467-211.43-467-470S613.79,71.65,872,70l3,0,3,0C1006.43,71.65,1110,176.22,1110,305Z" transform="translate(-403 -68)"/><path d="M872,1012a472.12,472.12,0,0,1-182.66-906A469,469,0,0,1,872,68l3,0,3.06,0A237,237,0,0,1,875,542c-128.48,0-233,104.52-233,233,0,126.86,103.17,231.37,230,233Zm3-939-3,0A467.12,467.12,0,0,0,691.26,969.46a463.56,463.56,0,0,0,110.08,31.78A239.26,239.26,0,0,1,637,775c0-131.23,106.77-238,238-238A232.06,232.06,0,0,0,967.25,92.07,230.23,230.23,0,0,0,878,73Z" transform="translate(-403 -68)"/><path d="M875,71l3,0a234,234,0,0,1-3,468c-130.13,0-236,105.87-236,236,0,114.92,83.59,211.74,193.14,232.07a468.84,468.84,0,0,1-289.76-797.7A467.49,467.49,0,0,1,872,71l3,0m0-1-3,0C613.79,71.65,405,281.45,405,540s208.79,468.35,467,470c-128.39-1.63-232-106.2-232-235,0-129.79,105.21-235,235-235s235-105.21,235-235c0-128.78-103.57-233.35-232-235l-3,0Z" transform="translate(-403 -68)"/><path d="M875,1011.5l-3,0a236.5,236.5,0,0,1,3-473c128.75,0,233.5-104.75,233.5-233.5,0-127-103.12-231.6-230-233.47l0-3a471.61,471.61,0,0,1,182,905.07,468.38,468.38,0,0,1-182.46,37.89Z" transform="translate(-403 -68)"/><path d="M879,69a471.12,471.12,0,0,1,181.27,904.11A467.9,467.9,0,0,1,878,1011l-3,0-3,0a236,236,0,0,1,3-472c129,0,234-105,234-234,0-127.07-103.08-231.81-230-234l0-2m-1-1,0,4c126.82,1.61,230,106.12,230,233,0,128.48-104.52,233-233,233a237,237,0,0,0-3.06,474l3.06,0,3,0a472.12,472.12,0,0,0,182.66-906A469,469,0,0,0,878.05,68Z" transform="translate(-403 -68)"/><path d="M875,1009.5l-3,0a234.5,234.5,0,0,1,3-469c129.86,0,235.5-105.65,235.5-235.5,0-118.94-89.74-218.45-205-233.52A469.34,469.34,0,0,1,1208,871,468,468,0,0,1,878,1009.48Z" transform="translate(-403 -68)"/><path d="M917.86,72.93a468.84,468.84,0,0,1,289.76,797.7A467.49,467.49,0,0,1,878,1009l-3,0-3,0a234,234,0,0,1,3-468c130.13,0,236-105.87,236-236,0-114.92-83.59-211.74-193.14-232.07M878,70c128.39,1.63,232,106.2,232,235,0,129.79-105.21,235-235,235S640,645.21,640,775c0,128.78,103.57,233.35,232,235l3,0,3,0c258.17-1.63,467-211.43,467-470S1136.21,71.65,878,70Z" transform="translate(-403 -68)"/></svg>